<svg xmlns="http://www.w3.org/2000/svg" width="17.442" height="14.244" viewBox="0 0 17.442 14.244">
  <g id="photo-camera" transform="translate(0 -5.5)">
    <path id="Path_21620" data-name="Path 21620" d="M16.047,8.407H13.569L12.406,5.5H5.036L3.873,8.407H3.488V6.954H1.744V8.407H1.4A1.4,1.4,0,0,0,0,9.8v8.537a1.407,1.407,0,0,0,1.4,1.4H16.037a1.407,1.407,0,0,0,1.4-1.4V9.8A1.4,1.4,0,0,0,16.047,8.407ZM2.326,7.535h.581v.872H2.326Zm14.535,10.8a.824.824,0,0,1-.824.824H1.4a.825.825,0,0,1-.824-.824V9.8A.815.815,0,0,1,1.4,8.988H4.267L5.429,6.081h6.583l1.163,2.907h2.872a.815.815,0,0,1,.814.814Z"/>
    <path id="Path_21621" data-name="Path 21621" d="M17.233,14.5a5.233,5.233,0,1,0,5.233,5.233A5.239,5.239,0,0,0,17.233,14.5Zm0,9.884a4.651,4.651,0,1,1,4.651-4.651A4.657,4.657,0,0,1,17.233,24.384Z" transform="translate(-8.512 -6.384)"/>
    <path id="Path_21622" data-name="Path 21622" d="M21.488,20.5a3.488,3.488,0,1,0,3.488,3.488A3.492,3.492,0,0,0,21.488,20.5Zm0,6.4A2.907,2.907,0,1,1,24.4,23.988,2.91,2.91,0,0,1,21.488,26.9Z" transform="translate(-12.767 -10.639)"/>
    <path id="Path_21623" data-name="Path 21623" d="M49.163,19.5a1.163,1.163,0,1,0,1.163,1.163A1.164,1.164,0,0,0,49.163,19.5Zm0,1.744a.581.581,0,1,1,.581-.581A.582.582,0,0,1,49.163,21.244Z" transform="translate(-34.046 -9.93)"/>
  </g>
</svg>
