<svg xmlns="http://www.w3.org/2000/svg" width="19.96" height="16.331" viewBox="0 0 19.96 16.331">
  <path id="Path_1958" data-name="Path 1958" d="M3308.836,4645.5q-7.55-.005-15.1,0c-1.052,0-1.586.609-1.593,1.8l0,.633c-.007.857-.013,1.742.013,2.613a1.923,1.923,0,0,1-.006.231.545.545,0,0,1-.108,0,1.427,1.427,0,0,0-1.118.4,1.933,1.933,0,0,0-.465,1.371c-.01.534-.007,1.072,0,1.605v.405c0,.966.2,1.953,1.669,1.983h.026a.868.868,0,0,1,0,.1c-.016.888-.013,1.789-.01,2.664l0,.64c0,.8.176,1.875,1.644,1.875q1.6.005,3.192,0h6.508q2.667,0,5.339,0c1,0,1.577-.644,1.577-1.766q.01-6.39,0-12.786C3310.407,4646.151,3309.833,4645.5,3308.836,4645.5Zm.146,14.368a1.629,1.629,0,0,1-.038.466,1.386,1.386,0,0,1-.369.031q-7.3.005-14.6,0a1.325,1.325,0,0,1-.373-.031,1.849,1.849,0,0,1-.035-.462c0-.327,0-.653,0-.98.007-.7.01-1.422-.013-2.14a1.208,1.208,0,0,1,0-.2.956.956,0,0,1,.128-.007c1.382.027,2.787.021,4.144.017l1.21,0c1.192,0,1.7-.579,1.711-1.929l0-.129c0-.66.006-1.34-.006-2.014-.019-1.1-.57-1.708-1.548-1.715q-1.9-.005-3.81,0h-1.822v-.571c0-1.055-.01-2.055.022-3.052a1.149,1.149,0,0,1,.226-.2c.029,0,.061,0,.089.007a1.773,1.773,0,0,0,.188.01h14.319a2.766,2.766,0,0,1,.526.034,3.877,3.877,0,0,1,.038.67Zm-16.852-4.9h-.022a.425.425,0,0,1-.159-.024.5.5,0,0,1-.032-.265c.019-.7.013-1.419,0-2.089a.564.564,0,0,1,.019-.2.213.213,0,0,1,.143-.021c2.357,0,4.718.007,7.075,0a.448.448,0,0,1,.137.021.421.421,0,0,1,.038.221c0,.459,0,.922,0,1.381v.68a.518.518,0,0,1-.042.272.326.326,0,0,1-.188.027c-.5-.007-1-.01-1.494-.01-.341,0-.678,0-1.01,0h-1.994C3293.781,4654.96,3292.956,4654.957,3292.131,4654.97Z" transform="translate(-3290.452 -4645.502)" fill="#898989"/>
</svg>
