<svg xmlns="http://www.w3.org/2000/svg" width="21.354" height="19.646" viewBox="0 0 21.354 19.646">
  <g id="comment" transform="translate(-0.001 1.332)">
    <path id="Path_21657" data-name="Path 21657" d="M18.419-1.332H2.936A2.939,2.939,0,0,0,0,1.6v9.475a2.939,2.939,0,0,0,2.925,2.936v4.3l6.179-4.3h9.314a2.939,2.939,0,0,0,2.936-2.936V1.6a2.939,2.939,0,0,0-2.936-2.936ZM20.1,11.079a1.687,1.687,0,0,1-1.685,1.685H8.712L4.177,15.919V12.763H2.936a1.687,1.687,0,0,1-1.685-1.685V1.6A1.686,1.686,0,0,1,2.936-.081H18.419A1.686,1.686,0,0,1,20.1,1.6Zm0,0" transform="translate(0 0)" fill="#112868"/>
    <path id="Path_21658" data-name="Path 21658" d="M171.293,131.172h9.923v1.251h-9.923Zm0,0" transform="translate(-165.577 -128.083)" fill="#112868"/>
    <path id="Path_21659" data-name="Path 21659" d="M171.293,211.172h9.923v1.251h-9.923Zm0,0" transform="translate(-165.577 -205.414)" fill="#112868"/>
    <path id="Path_21660" data-name="Path 21660" d="M171.293,291.172h9.923v1.251h-9.923Zm0,0" transform="translate(-165.577 -282.745)" fill="#112868"/>
  </g>
</svg>
