<svg xmlns="http://www.w3.org/2000/svg" width="32.723" height="18.543" viewBox="0 0 32.723 18.543">
  <g id="coupon" transform="translate(0 -104)">
    <path id="Path_21631" data-name="Path 21631" d="M.918,104.77.6,110a3.586,3.586,0,0,1,3.154,3.928C3.4,115,3.223,115.832.6,116.606v5.357H32.173v-5.357s-3.4-.7-3.261-3.466c.755-1.58.2-2.472,3.261-3.159.035-1.374,0-5.528,0-5.528Z" fill="#e70101"/>
    <g id="Group_12121" data-name="Group 12121" transform="translate(9.932 115.737)">
      <g id="Group_12120" data-name="Group 12120" transform="translate(0 0)">
        <rect id="Rectangle_4625" data-name="Rectangle 4625" width="2" transform="translate(0.068 0.263)" fill="#e70101"/>
      </g>
    </g>
    <g id="Group_12123" data-name="Group 12123" transform="translate(9.932 119.349)">
      <g id="Group_12122" data-name="Group 12122" transform="translate(0 0)">
        <rect id="Rectangle_4626" data-name="Rectangle 4626" width="1" height="1" transform="translate(0.068 -0.349)" fill="#fff"/>
      </g>
    </g>
    <g id="Group_12156" data-name="Group 12156" transform="translate(9.932 111.126)">
      <g id="Group_12122-2" data-name="Group 12122" transform="translate(0 0)">
        <rect id="Rectangle_4626-2" data-name="Rectangle 4626" width="1" height="1" transform="translate(0.068 -0.126)" fill="#fff"/>
      </g>
    </g>
    <g id="Group_12151" data-name="Group 12151" transform="translate(9.932 114.737)">
      <g id="Group_12122-3" data-name="Group 12122" transform="translate(0 0)">
        <rect id="Rectangle_4626-3" data-name="Rectangle 4626" width="1" height="1" transform="translate(0.068 0.263)" fill="#fff"/>
      </g>
    </g>
    <g id="Group_12204" data-name="Group 12204" transform="translate(9.932 116.737)">
      <g id="Group_12122-4" data-name="Group 12122" transform="translate(0 0)">
        <rect id="Rectangle_4626-4" data-name="Rectangle 4626" width="1" height="1" transform="translate(0.068 0.263)" fill="#fff"/>
      </g>
    </g>
    <g id="Group_12153" data-name="Group 12153" transform="translate(9.932 108.514)">
      <g id="Group_12122-5" data-name="Group 12122" transform="translate(0 0)">
        <rect id="Rectangle_4626-5" data-name="Rectangle 4626" width="1" transform="translate(0.068 0.486)" fill="#e70101"/>
      </g>
    </g>
    <g id="Group_12150" data-name="Group 12150" transform="translate(9.932 117.543)">
      <g id="Group_12122-6" data-name="Group 12122" transform="translate(0 0)">
        <rect id="Rectangle_4626-6" data-name="Rectangle 4626" width="1" transform="translate(0.068 0.457)" fill="#e70101"/>
      </g>
    </g>
    <g id="Group_12155" data-name="Group 12155" transform="translate(9.932 109.32)">
      <g id="Group_12122-7" data-name="Group 12122" transform="translate(0 0)">
        <rect id="Rectangle_4626-7" data-name="Rectangle 4626" width="1" height="1" transform="translate(0.068 -0.32)" fill="#fff"/>
      </g>
    </g>
    <g id="Group_12152" data-name="Group 12152" transform="translate(9.932 112.932)">
      <g id="Group_12122-8" data-name="Group 12122" transform="translate(0 0)">
        <rect id="Rectangle_4626-8" data-name="Rectangle 4626" width="1" height="1" transform="translate(0.068 0.068)" fill="#fff"/>
      </g>
    </g>
    <g id="Group_12154" data-name="Group 12154" transform="translate(9.932 106.709)">
      <g id="Group_12122-9" data-name="Group 12122" transform="translate(0 0)">
        <rect id="Rectangle_4626-9" data-name="Rectangle 4626" width="1" height="1" transform="translate(0.068 0.291)" fill="#fff"/>
      </g>
    </g>
    <g id="Group_12135" data-name="Group 12135" transform="translate(2.709 106.709)">
      <g id="Group_12134" data-name="Group 12134" transform="translate(0 0)">
        <rect id="Rectangle_4632" data-name="Rectangle 4632" width="1" height="1" transform="translate(0.291 0.291)" fill="#fff"/>
      </g>
    </g>
    <g id="Group_12137" data-name="Group 12137" transform="translate(29.795 106.709)">
      <g id="Group_12136" data-name="Group 12136" transform="translate(0 0)">
        <rect id="Rectangle_4633" data-name="Rectangle 4633" width="1" height="1" transform="translate(0.205 0.291)" fill="#fff"/>
      </g>
    </g>
    <g id="Group_12139" data-name="Group 12139" transform="translate(29.795 119.349)">
      <g id="Group_12138" data-name="Group 12138" transform="translate(0 0)">
        <rect id="Rectangle_4634" data-name="Rectangle 4634" width="1" height="1" transform="translate(0.205 -0.349)" fill="#fff"/>
      </g>
    </g>
    <g id="Group_12141" data-name="Group 12141" transform="translate(2.709 119.349)">
      <g id="Group_12140" data-name="Group 12140" transform="translate(0 0)">
        <rect id="Rectangle_4635" data-name="Rectangle 4635" width="1" height="1" transform="translate(0.291 -0.349)" fill="#fff"/>
      </g>
    </g>
    <g id="Group_12143" data-name="Group 12143" transform="translate(0 104)">
      <g id="Group_12142" data-name="Group 12142" transform="translate(0 0)">
        <path id="Path_21585" data-name="Path 21585" d="M32.178,110.545a.545.545,0,0,0,.545-.545v-5.454a.545.545,0,0,0-.545-.545H.545a.545.545,0,0,0-.545.545V110a.545.545,0,0,0,.545.545,2.727,2.727,0,1,1,0,5.454.545.545,0,0,0-.545.545V122a.545.545,0,0,0,.545.545H32.178a.545.545,0,0,0,.545-.545v-5.454a.545.545,0,0,0-.545-.545,2.727,2.727,0,1,1,0-5.454ZM28.4,113.814a3.818,3.818,0,0,0,3.237,3.237v4.4H1.091v-4.4a3.818,3.818,0,0,0,0-7.558v-4.4H31.632v4.4A3.818,3.818,0,0,0,28.4,113.814Z" transform="translate(0 -104)" fill="#e70101"/>
      </g>
    </g>
    <g id="Group_12145" data-name="Group 12145" transform="translate(14.18 107.818)">
      <g id="Group_12144" data-name="Group 12144" transform="translate(0 0)">
        <path id="Path_21586" data-name="Path 21586" d="M210.182,160a2.182,2.182,0,1,0,2.182,2.182A2.182,2.182,0,0,0,210.182,160Zm0,3.272a1.091,1.091,0,1,1,1.091-1.091A1.091,1.091,0,0,1,210.182,163.272Z" transform="translate(-208 -160)" fill="#fff"/>
      </g>
    </g>
    <g id="Group_12147" data-name="Group 12147" transform="translate(20.725 114.362)">
      <g id="Group_12146" data-name="Group 12146" transform="translate(0 0)">
        <path id="Path_21587" data-name="Path 21587" d="M306.182,256a2.182,2.182,0,1,0,2.182,2.182A2.182,2.182,0,0,0,306.182,256Zm0,3.272a1.091,1.091,0,1,1,1.091-1.091A1.091,1.091,0,0,1,306.182,259.272Z" transform="translate(-304 -256)" fill="#fff"/>
      </g>
    </g>
    <g id="Group_12149" data-name="Group 12149" transform="translate(14.885 108.522)">
      <g id="Group_12148" data-name="Group 12148" transform="translate(0 0)">
        <rect id="Rectangle_4636" data-name="Rectangle 4636" width="12.34" height="1.091" transform="translate(0 8.726) rotate(-45)" fill="#fff"/>
      </g>
    </g>
  </g>
</svg>
