<svg xmlns="http://www.w3.org/2000/svg" width="27.635" height="27.635" viewBox="0 0 27.635 27.635">
  <g id="Group_12277" data-name="Group 12277" transform="translate(-130 -356)">
    <path id="Path_21630" data-name="Path 21630" d="M2358.517,362.222l1.039.84,2.335-.984.618-1.557h3s-.206,1.534,0,1.557a26.115,26.115,0,0,1,2.564.687,6.474,6.474,0,0,0,1.419-.183l1.854,1.831-.733,1.076.916,2.518,1.442.229-.137,3.159-1.1.206-1.122,2.472.681,1.122-2.037,2.221-.939-.755-2.884,1.145-.344,1.4h-2.77l-.5-1.4-2.427-1.145-.87.755-2.243-2.083.572-1.259-.944-2.472-1.328-.389V368.35l1.328-.492.944-2.369-.572-1.076Z" transform="translate(-2220)" fill="#018af3"/>
    <g id="Group_12158" data-name="Group 12158" transform="translate(3 1)">
      <g id="technical-support" transform="translate(127 355.001)">
        <path id="Path_21581" data-name="Path 21581" d="M4.86,21.371a2.253,2.253,0,0,0-1.089.278A12.744,12.744,0,0,1,16.354,1.331.54.54,0,0,0,16.568.273,13.92,13.92,0,0,0,13.817,0,13.818,13.818,0,0,0,2.973,22.38a2.268,2.268,0,1,0,1.887-1.01Zm.84,3.107a1.187,1.187,0,1,1,.348-.84A1.179,1.179,0,0,1,5.7,24.477Zm0,0" fill="#018af3"/>
        <path id="Path_21582" data-name="Path 21582" d="M211.486,35.574a2.262,2.262,0,1,0-.8.732,12.744,12.744,0,0,1-12.558,20.322.54.54,0,0,0-.212,1.059,13.93,13.93,0,0,0,2.724.269,13.818,13.818,0,0,0,10.844-22.382Zm-2.726-.417a1.188,1.188,0,1,1,.84.348A1.18,1.18,0,0,1,208.76,35.157Zm0,0" transform="translate(-186.825 -30.321)" fill="#018af3"/>
        <path id="Path_21583" data-name="Path 21583" d="M81.581,93.107a.54.54,0,0,0,.54.54H85.5a.54.54,0,0,0,.54-.54V92.061a8.452,8.452,0,0,0,2.026-.84l.739.739a.54.54,0,0,0,.763,0l2.385-2.387a.54.54,0,0,0,0-.763l-.738-.738a8.452,8.452,0,0,0,.84-2.026h1.042a.54.54,0,0,0,.54-.54V82.131a.54.54,0,0,0-.54-.54H92.05a8.454,8.454,0,0,0-.839-2.026l.734-.734a.54.54,0,0,0,0-.764l-2.387-2.385a.54.54,0,0,0-.763,0l-.733.733a8.452,8.452,0,0,0-2.026-.84V74.54A.54.54,0,0,0,85.5,74H82.121a.54.54,0,0,0-.54.54v1.037a8.445,8.445,0,0,0-2.026.839l-.733-.733a.54.54,0,0,0-.763,0l-2.387,2.386a.54.54,0,0,0,0,.763l.734.734a8.451,8.451,0,0,0-.84,2.026h-1.04a.54.54,0,0,0-.54.54l0,3.375a.54.54,0,0,0,.54.54h1.042a8.452,8.452,0,0,0,.84,2.026l-.738.738a.54.54,0,0,0,0,.763l2.385,2.387a.54.54,0,0,0,.382.158h0a.54.54,0,0,0,.382-.158l.739-.739a8.46,8.46,0,0,0,2.026.84Zm-1.814-3.021a.54.54,0,0,0-.675.072l-.657.657-1.622-1.624.657-.657a.54.54,0,0,0,.072-.674,7.388,7.388,0,0,1-1.022-2.467.54.54,0,0,0-.528-.426h-.927v-2.3h.926a.54.54,0,0,0,.528-.426,7.389,7.389,0,0,1,1.022-2.467.54.54,0,0,0-.072-.674l-.652-.653,1.624-1.622.652.652a.54.54,0,0,0,.675.072,7.385,7.385,0,0,1,2.467-1.022A.54.54,0,0,0,82.661,76v-.922h2.3V76a.54.54,0,0,0,.426.528,7.391,7.391,0,0,1,2.467,1.022.539.539,0,0,0,.674-.072l.652-.652L90.8,78.45l-.652.652a.54.54,0,0,0-.072.675A7.393,7.393,0,0,1,91.1,82.244a.54.54,0,0,0,.528.426h.927v2.3h-.927a.54.54,0,0,0-.528.426,7.387,7.387,0,0,1-1.022,2.467.54.54,0,0,0,.072.675l.657.657-1.622,1.624-.657-.657a.54.54,0,0,0-.675-.072,7.393,7.393,0,0,1-2.467,1.022.54.54,0,0,0-.426.528v.931h-2.3v-.931a.54.54,0,0,0-.426-.528A7.388,7.388,0,0,1,79.767,90.086Zm0,0" transform="translate(-69.991 -70.006)" fill="#018af3"/>
        <path id="Path_21584" data-name="Path 21584" d="M182.291,177.831a4.46,4.46,0,1,0-4.46,4.46A4.465,4.465,0,0,0,182.291,177.831Zm-7.84,0a3.38,3.38,0,1,1,3.38,3.38A3.384,3.384,0,0,1,174.451,177.831Zm0,0" transform="translate(-164.014 -164.014)" fill="#fff"/>
      </g>
    </g>
  </g>
</svg>
