<svg xmlns="http://www.w3.org/2000/svg" width="22.778" height="21.353" viewBox="0 0 22.778 21.353">
  <g id="browser" transform="translate(0 -16.017)">
    <path id="Path_21672" data-name="Path 21672" d="M57.172,205.488H42.046A2.049,2.049,0,0,1,40,203.442V192.675a.712.712,0,0,1,1.424,0v10.767a.624.624,0,0,0,.623.623H57.172a.624.624,0,0,0,.623-.623V192.675a.712.712,0,0,1,1.424,0v10.767A2.049,2.049,0,0,1,57.172,205.488Z" transform="translate(-38.22 -168.119)" fill="#112868"/>
    <path id="Path_21673" data-name="Path 21673" d="M22.066,27.047a.709.709,0,0,1-.5-.209L12.71,17.986a1.871,1.871,0,0,0-2.642,0L1.215,26.839A.712.712,0,0,1,.209,25.832L9.061,16.98a3.3,3.3,0,0,1,4.656,0l8.852,8.852a.712.712,0,0,1-.5,1.215Z" transform="translate(0)" fill="#112868"/>
    <path id="Path_21674" data-name="Path 21674" d="M182.406,297.236h-5.694a.712.712,0,0,1-.712-.712v-6.317a2.227,2.227,0,0,1,2.224-2.224h2.669a2.227,2.227,0,0,1,2.224,2.224v6.317A.712.712,0,0,1,182.406,297.236Zm-4.983-1.424h4.271v-5.605a.8.8,0,0,0-.8-.8h-2.669a.8.8,0,0,0-.8.8Z" transform="translate(-168.17 -259.867)" fill="#112868"/>
  </g>
</svg>
