<svg xmlns="http://www.w3.org/2000/svg" width="24.301" height="24.303" viewBox="0 0 24.301 24.303">
  <g id="Group_12231" data-name="Group 12231" transform="translate(-306 -358)">
    <path id="Path_21632" data-name="Path 21632" d="M2526.573,358.47h17.6v20.466a4.314,4.314,0,0,0,1.374,2.744c-3.3-.023-16.911,0-16.911,0a2.673,2.673,0,0,1-2.132-2.714C2526.479,376.609,2526.573,358.47,2526.573,358.47Z" transform="translate(-2220)" fill="#009270"/>
    <g id="Group_12160" data-name="Group 12160">
      <g id="newspaper" transform="translate(305.93 358)">
        <path id="Path_21588" data-name="Path 21588" d="M23.885,9.174H18.662V.486A.486.486,0,0,0,18.176,0H.556A.486.486,0,0,0,.07.486V20.958A3.346,3.346,0,0,0,3.409,24.3h17.62a3.346,3.346,0,0,0,3.342-3.342V9.66a.486.486,0,0,0-.486-.486ZM3.409,23.33a2.372,2.372,0,0,1-2.367-2.372V.972H17.69l0,19.989a3.33,3.33,0,0,0,.988,2.369ZM23.4,20.961a2.37,2.37,0,0,1-4.739,0V10.185h0v-.039H23.4Zm0,0" fill="#009270"/>
        <path id="Path_21589" data-name="Path 21589" d="M223.625,122.242H219.9a.486.486,0,0,0-.486.486v4.822a.486.486,0,0,0,.486.486h3.728a.486.486,0,0,0,.486-.486v-4.822A.486.486,0,0,0,223.625,122.242Zm-.486,4.822h-2.756v-3.85h2.756Zm0,0" transform="translate(-207.68 -115.744)" fill="#fff"/>
        <path id="Path_21590" data-name="Path 21590" d="M55.594,48.367H42.432a.486.486,0,0,0-.486.486v2.1a.486.486,0,0,0,.486.486H55.594a.486.486,0,0,0,.486-.486v-2.1A.486.486,0,0,0,55.594,48.367Zm-.486,2.1H42.918V49.339h12.19Zm0,0" transform="translate(-39.649 -45.796)" fill="#fff"/>
        <path id="Path_21591" data-name="Path 21591" d="M42.424,146.128h7.858a.486.486,0,0,0,0-.972H42.424a.486.486,0,1,0,0,.972Zm0,0" transform="translate(-39.642 -137.439)" fill="#fff"/>
        <path id="Path_21592" data-name="Path 21592" d="M42.424,191.085h7.858a.486.486,0,0,0,0-.972H42.424a.486.486,0,1,0,0,.972Zm0,0" transform="translate(-39.642 -180.006)" fill="#fff"/>
        <path id="Path_21593" data-name="Path 21593" d="M55.1,254.855H42.425a.486.486,0,1,0,0,.972H55.1a.486.486,0,1,0,0-.972Zm0,0" transform="translate(-39.643 -241.307)" fill="#fff"/>
        <path id="Path_21594" data-name="Path 21594" d="M55.1,300.063H42.425a.486.486,0,1,0,0,.972H55.1a.486.486,0,1,0,0-.972Zm0,0" transform="translate(-39.643 -284.111)" fill="#fff"/>
        <path id="Path_21595" data-name="Path 21595" d="M55.1,345.27H42.425a.486.486,0,1,0,0,.972H55.1a.486.486,0,1,0,0-.972Zm0,0" transform="translate(-39.643 -326.915)" fill="#fff"/>
        <path id="Path_21596" data-name="Path 21596" d="M55.1,390.477H42.425a.486.486,0,1,0,0,.972H55.1a.486.486,0,1,0,0-.972Zm0,0" transform="translate(-39.643 -369.719)" fill="#fff"/>
      </g>
    </g>
  </g>
</svg>
