<svg xmlns="http://www.w3.org/2000/svg" width="20.771" height="21.485" viewBox="0 0 20.771 21.485">
  <g id="Group_12238" data-name="Group 12238" transform="translate(-8.5)">
    <path id="Path_21661" data-name="Path 21661" d="M28.642,10.574h-2.1v-.94a2.477,2.477,0,0,0-1.888-2.393V.629A.629.629,0,0,0,24.026,0H9.129A.629.629,0,0,0,8.5.629V17.876a.629.629,0,0,0,.629.629h9.693v.516a2.468,2.468,0,0,0,2.467,2.464H26.8a2.468,2.468,0,0,0,2.467-2.464V11.2a.629.629,0,0,0-.629-.629Zm-3.357-.94v.94H22.809v-.94a1.238,1.238,0,0,1,2.476,0ZM9.759,17.246V1.259H23.4V7.253A2.476,2.476,0,0,0,21.55,9.634v.94h-2.1a.629.629,0,0,0-.629.629v6.043Zm18.254,1.775a1.208,1.208,0,0,1-1.209,1.2H21.29a1.208,1.208,0,0,1-1.209-1.2V11.833H21.55v1.657a.629.629,0,1,0,1.259,0V11.833h2.476v1.657a.629.629,0,1,0,1.259,0V11.833h1.469Z" fill="#112868"/>
    <path id="Path_21662" data-name="Path 21662" d="M70.382,60.2l-.715.768-.048-.06a.629.629,0,0,0-.981.789l.5.627a.63.63,0,0,0,.468.235h.023a.63.63,0,0,0,.461-.2l1.211-1.3a.629.629,0,0,0-.921-.858Z" transform="translate(-57.481 -57.483)" fill="#112868"/>
    <path id="Path_21663" data-name="Path 21663" d="M170.129,76.759h5.623a.629.629,0,1,0,0-1.259h-5.623a.629.629,0,1,0,0,1.259Z" transform="translate(-154.244 -72.332)" fill="#112868"/>
    <path id="Path_21664" data-name="Path 21664" d="M70.382,151.2l-.715.768-.048-.06a.629.629,0,0,0-.981.789l.5.627a.63.63,0,0,0,.468.235h.023a.63.63,0,0,0,.461-.2l1.211-1.3a.629.629,0,0,0-.921-.858Z" transform="translate(-57.481 -144.664)" fill="#112868"/>
    <path id="Path_21665" data-name="Path 21665" d="M170.129,167.759h3.525a.629.629,0,0,0,0-1.259h-3.525a.629.629,0,0,0,0,1.259Z" transform="translate(-154.244 -159.513)" fill="#112868"/>
    <path id="Path_21666" data-name="Path 21666" d="M70.382,242.2l-.715.768-.048-.06a.629.629,0,0,0-.981.789l.5.627a.63.63,0,0,0,.468.235h.023a.63.63,0,0,0,.461-.2l1.211-1.3a.629.629,0,0,0-.921-.858Z" transform="translate(-57.481 -231.846)" fill="#112868"/>
    <path id="Path_21667" data-name="Path 21667" d="M171.178,257.5h-1.049a.629.629,0,1,0,0,1.259h1.049a.629.629,0,1,0,0-1.259Z" transform="translate(-154.244 -246.695)" fill="#112868"/>
  </g>
</svg>
