<svg id="Group_12237" data-name="Group 12237" xmlns="http://www.w3.org/2000/svg" width="20.147" height="20.147" viewBox="0 0 20.147 20.147">
  <path id="Path_21668" data-name="Path 21668" d="M17.189,2.959a10.062,10.062,0,1,0-14.23,14.23,10.062,10.062,0,1,0,14.23-14.23ZM10.074,18.967a8.893,8.893,0,1,1,8.893-8.893A8.9,8.9,0,0,1,10.074,18.967Z" transform="translate(0 0)" fill="#c5c5c5"/>
  <path id="Path_21669" data-name="Path 21669" d="M68.673,61a7.673,7.673,0,1,0,7.673,7.673A7.682,7.682,0,0,0,68.673,61Zm0,14.166a6.493,6.493,0,1,1,6.493-6.493A6.5,6.5,0,0,1,68.673,75.166Z" transform="translate(-58.6 -58.6)" fill="#c5c5c5"/>
  <path id="Path_21670" data-name="Path 21670" d="M185.722,124.389a.59.59,0,1,0,1.181,0,2.177,2.177,0,0,0-.928-1.724,3.244,3.244,0,0,0-1.433-.59v-.637a.59.59,0,1,0-1.181,0v.637a3.244,3.244,0,0,0-1.433.59,2.066,2.066,0,0,0,0,3.449,3.244,3.244,0,0,0,1.433.59v2.338c-.68-.166-1.181-.607-1.181-1.11a.59.59,0,1,0-1.181,0,2.177,2.177,0,0,0,.928,1.724,3.244,3.244,0,0,0,1.433.59v.643a.59.59,0,1,0,1.181,0v-.643a3.244,3.244,0,0,0,1.433-.59,2.066,2.066,0,0,0,0-3.449,3.244,3.244,0,0,0-1.433-.59v-2.338c.68.166,1.181.607,1.181,1.11Zm-3.542,0c0-.5.5-.944,1.181-1.11v2.22C182.681,125.333,182.181,124.891,182.181,124.389Zm3.542,3.542c0,.5-.5.944-1.181,1.11v-2.22C185.222,126.986,185.722,127.427,185.722,127.93Z" transform="translate(-173.878 -116.092)" fill="#c5c5c5"/>
</svg>
