<svg xmlns="http://www.w3.org/2000/svg" width="24.166" height="28.516" viewBox="0 0 24.166 28.516">
  <g id="Group_12227" data-name="Group 12227" transform="translate(-47 -355)">
    <path id="Path_21629" data-name="Path 21629" d="M2268.525,364.227h21.118l.916,19.026h-23.211Z" transform="translate(-2220)" fill="#f2710c"/>
    <g id="shop" transform="translate(31.641 355)">
      <g id="Group_12103" data-name="Group 12103" transform="translate(24.029)">
        <g id="Group_12102" data-name="Group 12102" transform="translate(0)">
          <path id="Path_21572" data-name="Path 21572" d="M84.072,3.524a4.109,4.109,0,0,0-7.386-1.836.483.483,0,1,0,.78.57,3.142,3.142,0,0,1,5.649,1.4.484.484,0,0,0,.478.415.518.518,0,0,0,.069,0A.483.483,0,0,0,84.072,3.524Z" transform="translate(-76.593)" fill="#f2710c"/>
        </g>
      </g>
      <g id="Group_12105" data-name="Group 12105" transform="translate(16.325 6.283)">
        <g id="Group_12104" data-name="Group 12104" transform="translate(0)">
          <path id="Path_21573" data-name="Path 21573" d="M44.349,47.023,42.9,44.607a.483.483,0,0,0-.414-.235H41.095a.483.483,0,1,0,0,.967h1.116l.87,1.45H23.522l.87-1.45H24.9a.483.483,0,1,0,0-.967h-.785a.483.483,0,0,0-.414.235l-1.45,2.417a.483.483,0,0,0,.414.732H43.934a.483.483,0,0,0,.414-.732Z" transform="translate(-22.185 -44.372)" fill="#f2710c"/>
        </g>
      </g>
      <g id="Group_12107" data-name="Group 12107" transform="translate(28.1 2.708)">
        <g id="Group_12106" data-name="Group 12106" transform="translate(0)">
          <path id="Path_21574" data-name="Path 21574" d="M113.323,20.9a.483.483,0,0,0-.3-.216l-6.589-1.541a.483.483,0,0,0-.581.361l-.5,2.124a.483.483,0,0,0,.941.22l.387-1.653,5.647,1.321-.887,3.794a.483.483,0,0,0,.36.58.489.489,0,0,0,.111.013.483.483,0,0,0,.47-.373l1-4.265A.481.481,0,0,0,113.323,20.9Z" transform="translate(-105.343 -19.126)" fill="#f2710c"/>
        </g>
      </g>
      <g id="Group_12109" data-name="Group 12109" transform="translate(18.21 1.469)">
        <g id="Group_12108" data-name="Group 12108" transform="translate(0)">
          <path id="Path_21575" data-name="Path 21575" d="M44.981,14.525l-.44-3.725A.484.484,0,0,0,44,10.377l-8.084.955a.483.483,0,0,0-.423.537l.734,6.212a.483.483,0,0,0,.479.427.528.528,0,0,0,.057,0,.484.484,0,0,0,.423-.537l-.678-5.733,7.124-.842.383,3.245a.483.483,0,0,0,.96-.113Z" transform="translate(-35.494 -10.374)" fill="#f2710c"/>
        </g>
      </g>
      <g id="Group_12111" data-name="Group 12111" transform="translate(21.821 4.64)">
        <g id="Group_12110" data-name="Group 12110" transform="translate(0)">
          <path id="Path_21576" data-name="Path 21576" d="M70.7,37.129l-.959-3.989a.483.483,0,0,0-.583-.357l-7.786,1.872a.483.483,0,0,0-.357.583l.479,1.994a.483.483,0,1,0,.94-.226l-.367-1.524,6.846-1.646.846,3.519a.483.483,0,0,0,.94-.226Z" transform="translate(-60.997 -32.769)" fill="#f2710c"/>
        </g>
      </g>
      <g id="Group_12113" data-name="Group 12113" transform="translate(15.359 8.7)">
        <g id="Group_12112" data-name="Group 12112" transform="translate(0)">
          <path id="Path_21577" data-name="Path 21577" d="M38.557,61.9a.483.483,0,0,0-.483-.458H16.809a.483.483,0,0,0-.483.458l-.967,18.849a.483.483,0,0,0,.483.508h23.2a.483.483,0,0,0,.483-.508ZM16.35,80.29l.917-17.883H37.615l.917,17.883Z" transform="translate(-15.359 -61.441)" fill="#f2710c"/>
        </g>
      </g>
      <g id="Group_12115" data-name="Group 12115" transform="translate(29.616 10.633)">
        <g id="Group_12114" data-name="Group 12114">
          <path id="Path_21578" data-name="Path 21578" d="M117.5,75.093a1.45,1.45,0,1,0,1.45,1.45A1.451,1.451,0,0,0,117.5,75.093Zm0,1.933a.483.483,0,1,1,.483-.483A.484.484,0,0,1,117.5,77.026Z" transform="translate(-116.052 -75.093)" fill="#fff"/>
        </g>
      </g>
      <g id="Group_12117" data-name="Group 12117" transform="translate(22.367 10.633)">
        <g id="Group_12116" data-name="Group 12116">
          <path id="Path_21579" data-name="Path 21579" d="M66.3,75.093a1.45,1.45,0,1,0,1.45,1.45A1.451,1.451,0,0,0,66.3,75.093Zm0,1.933a.483.483,0,1,1,.483-.483A.484.484,0,0,1,66.3,77.026Z" transform="translate(-64.852 -75.093)" fill="#fff"/>
        </g>
      </g>
      <g id="Group_12119" data-name="Group 12119" transform="translate(23.333 12.083)">
        <g id="Group_12118" data-name="Group 12118">
          <path id="Path_21580" data-name="Path 21580" d="M79.412,85.333h-.037a.483.483,0,0,0-.483.483.478.478,0,0,0,.037.186v2.472a3.142,3.142,0,1,1-6.283,0V85.816a.483.483,0,1,0-.967,0v2.658a4.108,4.108,0,0,0,8.216,0V85.816A.484.484,0,0,0,79.412,85.333Z" transform="translate(-71.679 -85.333)" fill="#fff"/>
        </g>
      </g>
    </g>
  </g>
</svg>
